<svg data-v-fde0c5aa="" xmlns="http://www.w3.org/2000/svg" viewBox="0 0 300 300" class="iconLeft"><!----><defs data-v-fde0c5aa=""><!----></defs><rect data-v-fde0c5aa="" fill="transparent" x="0" y="0" width="300px" height="300px" class="logo-background-square"></rect><defs data-v-fde0c5aa=""><!----></defs><g data-v-fde0c5aa="" id="22c421b3-f74b-41b7-901f-9dc6e2ef5767" fill="#000000" transform="matrix(1.7874495749185249,0,0,1.7874495749185249,80.50431152604452,134.23469401622137)"><path d="M4.17 13.94C6.44 13.94 7.71 12.61 7.71 11.09C7.71 9.79 6.96 9.03 5.75 8.58L4.65 8.09C3.77 7.77 3.15 7.57 3.15 7C3.15 6.45 3.61 6.15 4.41 6.15C5.19 6.15 5.77 6.41 6.40 6.89L7.45 5.59C6.62 4.79 5.52 4.37 4.41 4.37C2.44 4.37 1.06 5.57 1.06 7.11C1.06 8.46 1.99 9.24 3.01 9.62L4.19 10.14C5.07 10.47 5.60 10.67 5.60 11.26C5.60 11.82 5.18 12.17 4.23 12.17C3.43 12.17 2.58 11.77 1.89 11.20L0.70 12.61C1.68 13.50 2.94 13.94 4.17 13.94ZM13.83 13.94C14.73 13.94 15.48 13.75 16.10 13.55L15.74 12.07C15.33 12.22 14.88 12.33 14.35 12.33C13.34 12.33 12.89 11.90 12.89 10.81L12.89 8.25L15.83 8.25L15.83 6.64L12.89 6.64L12.89 3.70L10.93 4.54L10.93 6.64L9.09 6.64L9.09 8.25L10.84 8.25L10.84 10.82C10.84 12.68 11.62 13.94 13.83 13.94ZM18.42 13.78L20.48 13.78L20.48 10.02C21.07 8.74 21.97 8.26 22.82 8.26C23.34 8.26 23.62 8.34 24.05 8.47L24.47 6.75C24.07 6.57 23.74 6.45 23.13 6.45C22.02 6.45 21 7.03 20.31 8.20L20.27 8.20L20.10 6.64L18.42 6.64ZM29.82 13.94C30.74 13.94 31.78 13.62 32.56 13.12L31.89 11.87C31.28 12.21 30.73 12.38 30.10 12.38C29.08 12.38 28.22 11.90 28.08 10.81L32.76 10.81C32.79 10.63 32.84 10.25 32.84 9.88C32.84 7.94 31.72 6.45 29.58 6.45C27.73 6.45 25.97 7.87 25.97 10.21C25.97 12.57 27.66 13.94 29.82 13.94ZM28.06 9.44C28.24 8.48 28.88 8.04 29.62 8.04C30.56 8.04 30.98 8.60 30.98 9.44ZM38.22 13.94C39.14 13.94 40.18 13.62 40.96 13.12L40.29 11.87C39.68 12.21 39.13 12.38 38.50 12.38C37.48 12.38 36.62 11.90 36.48 10.81L41.16 10.81C41.19 10.63 41.24 10.25 41.24 9.88C41.24 7.94 40.12 6.45 37.98 6.45C36.13 6.45 34.37 7.87 34.37 10.21C34.37 12.57 36.06 13.94 38.22 13.94ZM36.46 9.44C36.64 8.48 37.28 8.04 38.02 8.04C38.96 8.04 39.38 8.60 39.38 9.44ZM47.43 13.94C48.33 13.94 49.08 13.75 49.70 13.55L49.34 12.07C48.93 12.22 48.48 12.33 47.95 12.33C46.94 12.33 46.49 11.90 46.49 10.81L46.49 8.25L49.43 8.25L49.43 6.64L46.49 6.64L46.49 3.70L44.53 4.54L44.53 6.64L42.69 6.64L42.69 8.25L44.44 8.25L44.44 10.82C44.44 12.68 45.22 13.94 47.43 13.94ZM54.57 13.94C56.84 13.94 58.11 12.61 58.11 11.09C58.11 9.79 57.36 9.03 56.15 8.58L55.05 8.09C54.17 7.77 53.55 7.57 53.55 7C53.55 6.45 54.01 6.15 54.81 6.15C55.59 6.15 56.17 6.41 56.80 6.89L57.85 5.59C57.02 4.79 55.92 4.37 54.81 4.37C52.84 4.37 51.46 5.57 51.46 7.11C51.46 8.46 52.39 9.24 53.41 9.62L54.59 10.14C55.47 10.47 56 10.67 56 11.26C56 11.82 55.58 12.17 54.63 12.17C53.83 12.17 52.98 11.77 52.29 11.20L51.10 12.61C52.08 13.50 53.34 13.94 54.57 13.94ZM64.23 13.94C65.13 13.94 65.88 13.75 66.50 13.55L66.14 12.07C65.73 12.22 65.28 12.33 64.75 12.33C63.74 12.33 63.29 11.90 63.29 10.81L63.29 8.25L66.23 8.25L66.23 6.64L63.29 6.64L63.29 3.70L61.33 4.54L61.33 6.64L59.49 6.64L59.49 8.25L61.24 8.25L61.24 10.82C61.24 12.68 62.02 13.94 64.23 13.94ZM68.82 13.78L70.88 13.78L70.88 10.02C71.47 8.74 72.37 8.26 73.22 8.26C73.74 8.26 74.02 8.34 74.45 8.47L74.87 6.75C74.47 6.57 74.14 6.45 73.53 6.45C72.42 6.45 71.40 7.03 70.71 8.20L70.67 8.20L70.50 6.64L68.82 6.64ZM80.22 13.94C81.14 13.94 82.18 13.62 82.96 13.12L82.29 11.87C81.68 12.21 81.13 12.38 80.50 12.38C79.48 12.38 78.62 11.90 78.48 10.81L83.16 10.81C83.19 10.63 83.24 10.25 83.24 9.88C83.24 7.94 82.12 6.45 79.98 6.45C78.13 6.45 76.37 7.87 76.37 10.21C76.37 12.57 78.06 13.94 80.22 13.94ZM78.46 9.44C78.64 8.48 79.28 8.04 80.02 8.04C80.96 8.04 81.38 8.60 81.38 9.44ZM87.14 13.94C88.03 13.94 88.90 13.51 89.60 12.96L89.66 12.96L89.81 13.78L91.49 13.78L91.49 9.66C91.49 7.50 90.30 6.45 88.35 6.45C87.16 6.45 86.06 6.87 85.39 7.43L86.11 8.78C86.62 8.37 87.28 8.11 87.95 8.11C88.89 8.11 89.36 8.51 89.43 9.18C86.14 9.39 84.85 10.21 84.85 11.80C84.85 13.01 85.74 13.94 87.14 13.94ZM87.79 12.35C87.21 12.35 86.83 12.12 86.83 11.65C86.83 11.00 87.39 10.54 89.43 10.42L89.43 11.65C88.94 12.05 88.41 12.35 87.79 12.35ZM92.90 13.78L94.84 13.78L94.84 8.93C95.03 8.46 95.20 8.20 95.47 8.20C95.73 8.20 95.87 8.44 95.87 8.92L95.87 13.78L97.45 13.78L97.45 8.93C97.64 8.46 97.83 8.20 98.10 8.20C98.38 8.20 98.49 8.44 98.49 8.92L98.49 13.78L100.42 13.78L100.42 8.76C100.42 7.34 99.85 6.45 98.88 6.45C98.10 6.45 97.61 6.97 97.36 7.63C97.19 6.86 96.75 6.45 96.14 6.45C95.34 6.45 94.92 6.93 94.65 7.53L94.60 7.53L94.44 6.64L92.90 6.64Z"></path></g><defs data-v-fde0c5aa=""><linearGradient data-v-fde0c5aa="" gradientTransform="rotate(25)" id="fb305652-8378-425f-b69e-334bc11be296" x1="0%" y1="0%" x2="100%" y2="0%"><stop data-v-fde0c5aa="" offset="0%" stop-color="#E90DCA" stop-opacity="1"></stop><stop data-v-fde0c5aa="" offset="100%" stop-color="#1536F1" stop-opacity="1"></stop></linearGradient></defs><g data-v-fde0c5aa="" id="6e660fb3-97c1-4f8f-99da-17fee4cb5852" stroke="none" fill="url(#fb305652-8378-425f-b69e-334bc11be296)" transform="matrix(0.3744014099168838,0,0,0.3744014099168838,37.71240662130584,133.3104966448627)"><path d="M82.914 22.033a1.5 1.5 0 0 0-1.5-1.5H67.719a1.5 1.5 0 0 0-1.5 1.5v5.902c0 .118.017.232.043.342v6.422a3.972 3.972 0 0 0-1.005-.143c-2.208 0-4.004 1.796-4.004 4.004s1.796 4.004 4.004 4.004 4.005-1.796 4.005-4.004c0-.222-.031-.435-.065-.647a1.5 1.5 0 0 0 .065-.415v-8.063H79.9v5.264a3.964 3.964 0 0 0-1.004-.143c-2.208 0-4.004 1.796-4.004 4.004s1.796 4.004 4.004 4.004S82.9 40.768 82.9 38.56c0-.222-.031-.435-.065-.647a1.5 1.5 0 0 0 .065-.415v-9.427c.004-.045.014-.089.014-.136v-5.902zm-13.695 1.5h10.694v2.902H69.219v-2.902zm-3.962 16.032c-.554 0-1.004-.451-1.004-1.004a1.005 1.005 0 0 1 2.009 0c0 .553-.451 1.004-1.005 1.004zm13.639 0c-.554 0-1.004-.451-1.004-1.004s.45-1.004 1.004-1.004a1.004 1.004 0 1 1 0 2.008zM14.119 36.287c0-.489-.101-.952-.262-1.385v-5.386l10.694-2.04v4.971a3.954 3.954 0 0 0-1.071-.164c-2.208 0-4.005 1.796-4.005 4.004s1.797 4.004 4.005 4.004 4.004-1.796 4.004-4.004c0-.166-.029-.323-.049-.484.075-.178.116-.373.116-.579V19.76a1.499 1.499 0 0 0-1.781-1.474l-13.694 2.612a1.5 1.5 0 0 0-1.219 1.474v9.986a3.958 3.958 0 0 0-.743-.075c-2.208 0-4.004 1.796-4.004 4.004s1.796 4.004 4.004 4.004 4.005-1.796 4.005-4.004zm9.361 1.005c-.554 0-1.005-.451-1.005-1.004s.451-1.004 1.005-1.004a1.005 1.005 0 0 1 0 2.008zm-9.623-13.679l10.694-2.04v2.849l-10.694 2.04v-2.849zm-3.743 13.679c-.554 0-1.004-.451-1.004-1.004s.45-1.004 1.004-1.004c.371 0 .683.211.857.511.022.053.052.102.079.151.039.107.069.22.069.341 0 .554-.452 1.005-1.005 1.005z"></path><path d="M67.062 58.822c-.013-9.595-6.093-17.793-14.602-20.96v-5.389a1.5 1.5 0 0 0-1.5-1.5h-4.662V9.411a1.5 1.5 0 1 0-3 0v21.562h-4.854a1.5 1.5 0 0 0-1.5 1.5v5.366c-8.54 3.151-14.647 11.366-14.66 20.983-.03.118-.051.24-.051.367 0 .149.029.291.069.427.405 11.993 10.281 21.626 22.37 21.626s21.966-9.633 22.37-21.626c.041-.136.069-.278.069-.427a1.4 1.4 0 0 0-.049-.367zm-5.664 9.795h-4.939c.706-2.413 1.148-5.082 1.269-7.927h6.242a19.223 19.223 0 0 1-2.572 7.927zM25.377 60.69h6.243c.121 2.845.563 5.515 1.269 7.927h-4.94a19.223 19.223 0 0 1-2.572-7.927zm2.181-10.928h5.276c-.689 2.417-1.113 5.087-1.219 7.927h-6.272c.17-2.849.941-5.537 2.215-7.927zm18.615-3v-6.004c2.333.672 4.427 2.866 5.966 6.004h-5.966zm7.174 3c.773 2.376 1.265 5.07 1.388 7.927h-8.562v-7.927h7.174zm-10.174-9.003v6.004h-5.965c1.54-3.138 3.633-5.332 5.965-6.004zm0 9.003v7.927h-8.561c.123-2.857.615-5.551 1.388-7.927h7.173zM34.618 60.69h8.555v7.927h-7.108c-.792-2.37-1.307-5.063-1.447-7.927zm8.555 10.927v5.811c-2.284-.658-4.34-2.776-5.87-5.811h5.87zm3 5.811v-5.811h5.871c-1.53 3.035-3.586 5.153-5.871 5.811zm0-8.811V60.69h8.556c-.14 2.864-.655 5.557-1.447 7.927h-7.109zm11.56-10.927c-.106-2.841-.531-5.511-1.219-7.927h5.133c.046 0 .09-.01.135-.014a19.258 19.258 0 0 1 2.222 7.941h-6.271zm2.073-10.928h-4.325c-1.001-2.401-2.295-4.424-3.799-5.968a19.473 19.473 0 0 1 8.124 5.968zM39.945 33.973h9.516v3.011a22.347 22.347 0 0 0-4.787-.521c-1.622 0-3.203.178-4.729.507v-2.997zm-2.279 6.821c-1.505 1.544-2.799 3.567-3.799 5.968H29.54a19.47 19.47 0 0 1 8.126-5.968zm-7.552 30.823h3.839c.832 1.948 1.857 3.643 3.032 5.029a19.484 19.484 0 0 1-6.871-5.029zm22.248 5.028c1.176-1.385 2.2-3.08 3.032-5.028h3.838a19.47 19.47 0 0 1-6.87 5.028zM20.295 47.815l-5.764-2.473a1.501 1.501 0 0 0-1.184 2.757l5.764 2.473a1.502 1.502 0 0 0 1.971-.787 1.5 1.5 0 0 0-.787-1.97zM18.341 69.122l-5.764 2.473a1.5 1.5 0 0 0 1.184 2.757l5.764-2.473a1.5 1.5 0 0 0-1.184-2.757zM12.664 61.353l6.271-.013a1.5 1.5 0 0 0-.003-3h-.003l-6.271.013a1.5 1.5 0 0 0 .003 3h.003zM70.259 50.693c.197 0 .397-.039.591-.122l5.764-2.473a1.5 1.5 0 0 0-1.184-2.757l-5.764 2.473a1.5 1.5 0 0 0 .593 2.879zM75.383 71.594l-5.763-2.473a1.501 1.501 0 0 0-1.184 2.757l5.763 2.473a1.502 1.502 0 0 0 1.971-.787 1.5 1.5 0 0 0-.787-1.97zM77.303 58.353l-6.271-.013h-.003a1.5 1.5 0 0 0-.003 3l6.271.013h.003a1.5 1.5 0 0 0 .003-3z"></path></g><!----></svg>