<svg data-v-423bf9ae="" xmlns="http://www.w3.org/2000/svg" viewBox="0 0 663 90" class="iconLeft"><!----><!----><!----><g data-v-423bf9ae="" id="d85c7f85-8f1c-481c-8702-494157d59528" fill="white" transform="matrix(5.964215028353327,0,0,5.964215028353327,111.39963319166435,-7.186880314530519)"><path d="M4.51 3.72C2.59 3.72 0.85 4.77 0.85 6.64C0.85 8.57 2.14 9.25 4.34 9.80C5.53 10.09 5.89 10.53 5.89 11.03C5.89 11.56 5.36 11.93 4.66 11.93C3.91 11.93 3.16 11.54 3.00 10.63L0.48 10.63C0.63 12.80 2.28 13.78 4.73 13.78C6.68 13.78 8.53 12.80 8.53 10.86C8.53 9.38 7.66 8.32 5.53 7.81C3.93 7.43 3.49 7.06 3.49 6.44C3.49 5.85 3.88 5.57 4.45 5.57C5.28 5.57 5.70 6.10 5.81 6.90L8.33 6.90C8.12 5.11 7.06 3.72 4.51 3.72ZM12.54 7.73L14.20 7.73L14.20 6.16L12.54 6.16L12.54 4.23L10.02 4.23L10.02 6.16L8.83 6.16L8.83 7.73L10.02 7.73L10.02 10.85C10.02 11.27 10.02 11.62 10.05 12.05C10.14 13.20 10.70 13.78 12.56 13.78C13.09 13.78 13.55 13.73 14.04 13.65L14.04 12.08C12.85 12.14 12.61 11.97 12.56 11.21C12.54 11.02 12.54 10.74 12.54 10.49ZM19.64 5.91C19.17 5.91 18.58 6.12 18.17 6.57L17.64 7.62L17.64 6.10L15.12 6.10L15.12 13.58L17.64 13.58L17.64 10.84C17.64 8.58 18.33 7.88 20.22 8.01L20.22 5.95C20.03 5.92 19.88 5.91 19.64 5.91ZM28.32 9.74C28.32 7.81 27.06 5.91 24.57 5.91C22.08 5.91 20.58 7.69 20.58 9.87C20.58 12.50 22.29 13.78 24.43 13.78C26.35 13.78 27.75 12.82 28.18 11.13L25.70 11.13C25.61 11.70 25.17 12.07 24.46 12.07C23.74 12.07 23.20 11.72 23.07 10.47L28.28 10.47C28.31 10.22 28.32 9.97 28.32 9.74ZM24.44 7.62C25.12 7.62 25.55 8.05 25.69 8.93L23.16 8.93C23.32 8.01 23.79 7.62 24.44 7.62ZM36.74 9.74C36.74 7.81 35.48 5.91 32.98 5.91C30.49 5.91 28.99 7.69 28.99 9.87C28.99 12.50 30.70 13.78 32.84 13.78C34.76 13.78 36.16 12.82 36.60 11.13L34.12 11.13C34.02 11.70 33.59 12.07 32.87 12.07C32.16 12.07 31.61 11.72 31.49 10.47L36.69 10.47C36.72 10.22 36.74 9.97 36.74 9.74ZM32.86 7.62C33.53 7.62 33.96 8.05 34.10 8.93L31.57 8.93C31.74 8.01 32.20 7.62 32.86 7.62ZM40.85 7.73L42.50 7.73L42.50 6.16L40.85 6.16L40.85 4.23L38.33 4.23L38.33 6.16L37.14 6.16L37.14 7.73L38.33 7.73L38.33 10.85C38.33 11.27 38.33 11.62 38.36 12.05C38.44 13.20 39.00 13.78 40.87 13.78C41.40 13.78 41.86 13.73 42.35 13.65L42.35 12.08C41.16 12.14 40.92 11.97 40.87 11.21C40.85 11.02 40.85 10.74 40.85 10.49ZM47.18 3.72C45.26 3.72 43.53 4.77 43.53 6.64C43.53 8.57 44.81 9.25 47.01 9.80C48.20 10.09 48.57 10.53 48.57 11.03C48.57 11.56 48.03 11.93 47.33 11.93C46.58 11.93 45.84 11.54 45.67 10.63L43.15 10.63C43.30 12.80 44.95 13.78 47.40 13.78C49.35 13.78 51.20 12.80 51.20 10.86C51.20 9.38 50.33 8.32 48.20 7.81C46.61 7.43 46.16 7.06 46.16 6.44C46.16 5.85 46.55 5.57 47.12 5.57C47.95 5.57 48.37 6.10 48.48 6.90L51.00 6.90C50.79 5.11 49.73 3.72 47.18 3.72ZM55.22 7.73L56.87 7.73L56.87 6.16L55.22 6.16L55.22 4.23L52.70 4.23L52.70 6.16L51.51 6.16L51.51 7.73L52.70 7.73L52.70 10.85C52.70 11.27 52.70 11.62 52.72 12.05C52.81 13.20 53.37 13.78 55.23 13.78C55.76 13.78 56.22 13.73 56.71 13.65L56.71 12.08C55.52 12.14 55.29 11.97 55.23 11.21C55.22 11.02 55.22 10.74 55.22 10.49ZM62.31 5.91C61.84 5.91 61.25 6.12 60.84 6.57L60.31 7.62L60.31 6.10L57.79 6.10L57.79 13.58L60.31 13.58L60.31 10.84C60.31 8.58 61.00 7.88 62.89 8.01L62.89 5.95C62.71 5.92 62.55 5.91 62.31 5.91ZM70.99 9.74C70.99 7.81 69.73 5.91 67.24 5.91C64.75 5.91 63.25 7.69 63.25 9.87C63.25 12.50 64.96 13.78 67.10 13.78C69.02 13.78 70.42 12.82 70.85 11.13L68.38 11.13C68.28 11.70 67.84 12.07 67.13 12.07C66.42 12.07 65.87 11.72 65.74 10.47L70.95 10.47C70.98 10.22 70.99 9.97 70.99 9.74ZM67.12 7.62C67.79 7.62 68.22 8.05 68.36 8.93L65.83 8.93C66.00 8.01 66.46 7.62 67.12 7.62ZM76.47 13.58L78.93 13.58C78.82 12.75 78.79 12.25 78.79 11.69L78.79 9.59C78.79 9.13 78.78 8.69 78.75 8.32C78.64 6.96 77.83 5.91 75.46 5.91C73.57 5.91 72.02 6.90 72.00 8.65L74.38 8.64C74.42 7.99 74.76 7.62 75.35 7.62C75.89 7.62 76.20 7.95 76.24 8.33C76.27 8.57 76.27 8.72 76.27 8.88L76.27 8.99L75.80 8.99C73.26 8.99 71.75 9.97 71.75 11.56C71.75 13.01 72.91 13.78 74.14 13.78C74.83 13.78 75.46 13.61 75.99 13.27L76.30 12.49ZM75.18 12.07C74.68 12.07 74.33 11.82 74.33 11.37C74.33 10.63 75.14 10.33 76.27 10.42L76.27 10.91C76.27 11.69 75.68 12.07 75.18 12.07ZM92.33 7.80C92.16 6.78 91.32 5.91 89.82 5.91C89.14 5.91 88.68 6.06 88.21 6.34L87.43 7.36C87.11 6.54 86.31 5.91 85.04 5.91C84.35 5.91 83.89 6.06 83.43 6.34L82.82 7.31L82.82 6.10L80.30 6.10L80.30 13.58L82.82 13.58L82.82 9.63C82.82 8.36 83.15 7.62 83.96 7.62C84.62 7.62 84.95 8.04 85.04 8.75C85.08 9.13 85.09 9.53 85.09 9.77L85.09 13.58L87.61 13.58L87.61 9.63C87.61 8.36 87.93 7.62 88.75 7.62C89.40 7.62 89.74 8.04 89.82 8.75C89.87 9.13 89.88 9.53 89.88 9.77L89.88 13.58L92.40 13.58L92.40 9.21C92.40 8.61 92.39 8.18 92.33 7.80Z"></path></g><!----><g data-v-423bf9ae="" id="271a4e5d-e7d5-42ec-bc25-a6bc4a81258d" transform="matrix(1.2273118843402375,0,0,1.2273118843402375,-6.520107584029283,-8.798264374245939)" stroke="none" fill="white"><path d="M82.914 22.033a1.5 1.5 0 0 0-1.5-1.5H67.719a1.5 1.5 0 0 0-1.5 1.5v5.902c0 .118.017.232.043.342v6.422a3.972 3.972 0 0 0-1.005-.143c-2.208 0-4.004 1.796-4.004 4.004s1.796 4.004 4.004 4.004 4.005-1.796 4.005-4.004c0-.222-.031-.435-.065-.647a1.5 1.5 0 0 0 .065-.415v-8.063H79.9v5.264a3.964 3.964 0 0 0-1.004-.143c-2.208 0-4.004 1.796-4.004 4.004s1.796 4.004 4.004 4.004S82.9 40.768 82.9 38.56c0-.222-.031-.435-.065-.647a1.5 1.5 0 0 0 .065-.415v-9.427c.004-.045.014-.089.014-.136v-5.902zm-13.695 1.5h10.694v2.902H69.219v-2.902zm-3.962 16.032c-.554 0-1.004-.451-1.004-1.004a1.005 1.005 0 0 1 2.009 0c0 .553-.451 1.004-1.005 1.004zm13.639 0c-.554 0-1.004-.451-1.004-1.004s.45-1.004 1.004-1.004a1.004 1.004 0 1 1 0 2.008zM14.119 36.287c0-.489-.101-.952-.262-1.385v-5.386l10.694-2.04v4.971a3.954 3.954 0 0 0-1.071-.164c-2.208 0-4.005 1.796-4.005 4.004s1.797 4.004 4.005 4.004 4.004-1.796 4.004-4.004c0-.166-.029-.323-.049-.484.075-.178.116-.373.116-.579V19.76a1.499 1.499 0 0 0-1.781-1.474l-13.694 2.612a1.5 1.5 0 0 0-1.219 1.474v9.986a3.958 3.958 0 0 0-.743-.075c-2.208 0-4.004 1.796-4.004 4.004s1.796 4.004 4.004 4.004 4.005-1.796 4.005-4.004zm9.361 1.005c-.554 0-1.005-.451-1.005-1.004s.451-1.004 1.005-1.004a1.005 1.005 0 0 1 0 2.008zm-9.623-13.679l10.694-2.04v2.849l-10.694 2.04v-2.849zm-3.743 13.679c-.554 0-1.004-.451-1.004-1.004s.45-1.004 1.004-1.004c.371 0 .683.211.857.511.022.053.052.102.079.151.039.107.069.22.069.341 0 .554-.452 1.005-1.005 1.005z"></path><path d="M67.062 58.822c-.013-9.595-6.093-17.793-14.602-20.96v-5.389a1.5 1.5 0 0 0-1.5-1.5h-4.662V9.411a1.5 1.5 0 1 0-3 0v21.562h-4.854a1.5 1.5 0 0 0-1.5 1.5v5.366c-8.54 3.151-14.647 11.366-14.66 20.983-.03.118-.051.24-.051.367 0 .149.029.291.069.427.405 11.993 10.281 21.626 22.37 21.626s21.966-9.633 22.37-21.626c.041-.136.069-.278.069-.427a1.4 1.4 0 0 0-.049-.367zm-5.664 9.795h-4.939c.706-2.413 1.148-5.082 1.269-7.927h6.242a19.223 19.223 0 0 1-2.572 7.927zM25.377 60.69h6.243c.121 2.845.563 5.515 1.269 7.927h-4.94a19.223 19.223 0 0 1-2.572-7.927zm2.181-10.928h5.276c-.689 2.417-1.113 5.087-1.219 7.927h-6.272c.17-2.849.941-5.537 2.215-7.927zm18.615-3v-6.004c2.333.672 4.427 2.866 5.966 6.004h-5.966zm7.174 3c.773 2.376 1.265 5.07 1.388 7.927h-8.562v-7.927h7.174zm-10.174-9.003v6.004h-5.965c1.54-3.138 3.633-5.332 5.965-6.004zm0 9.003v7.927h-8.561c.123-2.857.615-5.551 1.388-7.927h7.173zM34.618 60.69h8.555v7.927h-7.108c-.792-2.37-1.307-5.063-1.447-7.927zm8.555 10.927v5.811c-2.284-.658-4.34-2.776-5.87-5.811h5.87zm3 5.811v-5.811h5.871c-1.53 3.035-3.586 5.153-5.871 5.811zm0-8.811V60.69h8.556c-.14 2.864-.655 5.557-1.447 7.927h-7.109zm11.56-10.927c-.106-2.841-.531-5.511-1.219-7.927h5.133c.046 0 .09-.01.135-.014a19.258 19.258 0 0 1 2.222 7.941h-6.271zm2.073-10.928h-4.325c-1.001-2.401-2.295-4.424-3.799-5.968a19.473 19.473 0 0 1 8.124 5.968zM39.945 33.973h9.516v3.011a22.347 22.347 0 0 0-4.787-.521c-1.622 0-3.203.178-4.729.507v-2.997zm-2.279 6.821c-1.505 1.544-2.799 3.567-3.799 5.968H29.54a19.47 19.47 0 0 1 8.126-5.968zm-7.552 30.823h3.839c.832 1.948 1.857 3.643 3.032 5.029a19.484 19.484 0 0 1-6.871-5.029zm22.248 5.028c1.176-1.385 2.2-3.08 3.032-5.028h3.838a19.47 19.47 0 0 1-6.87 5.028zM20.295 47.815l-5.764-2.473a1.501 1.501 0 0 0-1.184 2.757l5.764 2.473a1.502 1.502 0 0 0 1.971-.787 1.5 1.5 0 0 0-.787-1.97zM18.341 69.122l-5.764 2.473a1.5 1.5 0 0 0 1.184 2.757l5.764-2.473a1.5 1.5 0 0 0-1.184-2.757zM12.664 61.353l6.271-.013a1.5 1.5 0 0 0-.003-3h-.003l-6.271.013a1.5 1.5 0 0 0 .003 3h.003zM70.259 50.693c.197 0 .397-.039.591-.122l5.764-2.473a1.5 1.5 0 0 0-1.184-2.757l-5.764 2.473a1.5 1.5 0 0 0 .593 2.879zM75.383 71.594l-5.763-2.473a1.501 1.501 0 0 0-1.184 2.757l5.763 2.473a1.502 1.502 0 0 0 1.971-.787 1.5 1.5 0 0 0-.787-1.97zM77.303 58.353l-6.271-.013h-.003a1.5 1.5 0 0 0-.003 3l6.271.013h.003a1.5 1.5 0 0 0 .003-3z"></path></g><!----></svg>